<?xml version="1.0" encoding="utf-8"?>
<!-- Generator: Adobe Illustrator 21.0.0, SVG Export Plug-In . SVG Version: 6.00 Build 0)  -->
<svg version="1.1" xmlns="http://www.w3.org/2000/svg" xmlns:xlink="http://www.w3.org/1999/xlink" x="0px" y="0px"
	 viewBox="0 0 164.8 132.8" style="enable-background:new 0 0 164.8 132.8;" xml:space="preserve">
<style type="text/css">
	.st0{fill:#1C1C1C;}
	.st1{fill:#BCBEC0;}
	.st2{fill:#9EC0B9;}
	.st3{fill:none;stroke:#000000;stroke-width:9;stroke-miterlimit:10;}
	.st4{fill:#D1D3D4;}
	.st5{fill:none;stroke:#FFFFFF;stroke-width:9;stroke-miterlimit:10;}
	.st6{fill:#FFFFFF;}
	.st7{fill:none;}
</style>
<g id="Layer_2">
	<path class="st7" d="M39.6,95.2c-0.2,0-0.4,0.1-0.6,0.1c-0.2,0.1-0.3,0.2-0.4,0.3c-0.1,0.1-0.3,0.3-0.4,0.6l-7.1,14
		c-0.3,0.5-0.5,1-0.8,1.5c-0.2,0.5-0.5,1.1-0.7,1.6c-0.2-0.5-0.4-1.1-0.7-1.6c-0.2-0.5-0.5-1-0.7-1.5l-7.1-14.1
		c-0.1-0.2-0.3-0.4-0.4-0.6c-0.1-0.1-0.3-0.2-0.4-0.3c-0.2-0.1-0.4-0.1-0.6-0.1c-0.2,0-0.5,0-0.7,0h-4.9v27.7h5.7v-16
		c0-0.4,0-0.8,0-1.2s-0.1-0.9-0.1-1.3l7.4,14.3c0.2,0.4,0.5,0.8,0.9,1c0.4,0.2,0.8,0.3,1.3,0.3h0.9c0.5,0,0.9-0.1,1.3-0.3
		c0.4-0.2,0.7-0.6,0.9-1l7.4-14.3c-0.1,0.4-0.1,0.9-0.1,1.3c0,0.4,0,0.8,0,1.2v16h5.7V95.2h-4.9C40.1,95.2,39.8,95.2,39.6,95.2z"/>
	<path class="st7" d="M105.3,93.2c0.3,0.3,0.6,0.5,0.9,0.6c0.3,0.1,0.7,0.2,1.1,0.2c0.4,0,0.8-0.1,1.2-0.2s0.7-0.3,1-0.6
		c0.3-0.3,0.5-0.6,0.7-0.9c0.2-0.3,0.2-0.7,0.2-1.1c0-0.4-0.1-0.8-0.2-1.1c-0.1-0.2-0.2-0.3-0.3-0.5c-0.1-0.2-0.2-0.3-0.4-0.5
		c-0.3-0.3-0.6-0.5-1-0.6s-0.8-0.2-1.2-0.2c-0.4,0-0.7,0.1-1.1,0.2c-0.3,0.2-0.7,0.4-0.9,0.6c-0.2,0.2-0.3,0.4-0.5,0.6h0
		c-0.1,0.1-0.1,0.2-0.2,0.3c-0.2,0.4-0.2,0.7-0.2,1.1c0,0.4,0.1,0.8,0.2,1.1C104.8,92.6,105.1,92.9,105.3,93.2z"/>
	<path class="st7" d="M71.2,99c-1.3-1.3-2.8-2.3-4.5-3c-1.8-0.7-3.7-1.1-5.9-1.1c-2.2,0-4.1,0.4-5.9,1.1c-1.8,0.7-3.3,1.7-4.6,3
		s-2.2,2.8-2.9,4.5c-0.7,1.7-1,3.6-1,5.6c0,2,0.3,3.9,1,5.6c0.7,1.7,1.7,3.2,2.9,4.5s2.8,2.3,4.6,3c1.8,0.7,3.7,1.1,5.9,1.1
		c2.2,0,4.1-0.4,5.9-1.1c1.8-0.7,3.3-1.7,4.5-3s2.2-2.8,2.9-4.5c0.7-1.7,1-3.6,1-5.6c0-2-0.3-3.9-1-5.6
		C73.4,101.7,72.5,100.2,71.2,99z M68,112.8c-0.4,1.1-0.9,2-1.5,2.8c-0.7,0.8-1.5,1.3-2.4,1.7c-1,0.4-2.1,0.6-3.3,0.6
		c-1.2,0-2.4-0.2-3.3-0.6c-1-0.4-1.8-1-2.5-1.7c-0.7-0.8-1.2-1.7-1.5-2.8c-0.4-1.1-0.5-2.3-0.5-3.7c0-1.4,0.2-2.6,0.5-3.7
		c0.4-1.1,0.9-2,1.5-2.8c0.7-0.8,1.5-1.3,2.5-1.8c1-0.4,2.1-0.6,3.3-0.6c1.2,0,2.3,0.2,3.3,0.6c1,0.4,1.8,1,2.4,1.8s1.2,1.7,1.5,2.8
		c0.4,1.1,0.5,2.3,0.5,3.7C68.6,110.4,68.4,111.7,68,112.8z"/>
	<path class="st7" d="M114.1,93.2c0.3,0.3,0.6,0.5,0.9,0.6s0.7,0.2,1.2,0.2s0.8-0.1,1.2-0.2c0.4-0.1,0.7-0.3,0.9-0.6
		c0.3-0.3,0.5-0.6,0.6-0.9c0.2-0.3,0.2-0.7,0.2-1.1c0-0.4-0.1-0.8-0.2-1.1c-0.1-0.3-0.3-0.5-0.4-0.7v0c-0.1-0.1-0.1-0.2-0.2-0.2
		c-0.3-0.3-0.6-0.5-0.9-0.6c-0.4-0.2-0.7-0.2-1.2-0.2s-0.8,0.1-1.2,0.2s-0.7,0.4-0.9,0.6c-0.1,0.1-0.2,0.2-0.3,0.4
		c-0.1,0.2-0.2,0.4-0.3,0.6c-0.2,0.4-0.2,0.7-0.2,1.1c0,0.4,0.1,0.8,0.2,1.1C113.6,92.6,113.8,92.9,114.1,93.2z"/>
	<path class="st7" d="M108.5,95.2l-10.3,26.6l-5.2-8.5c-0.3-0.4-0.6-0.8-1-1.2c-0.4-0.3-0.8-0.6-1.2-0.8c0.9-0.3,1.7-0.8,2.4-1.3
		c0.7-0.5,1.3-1.1,1.7-1.8c0.5-0.7,0.8-1.4,1.1-2.2c0.2-0.8,0.4-1.6,0.4-2.6c0-1.2-0.2-2.3-0.6-3.3s-1.1-1.9-2-2.6s-2-1.3-3.5-1.7
		c-1.4-0.4-3.1-0.6-5.1-0.6h-9v27.7h6.4v-10.3h1.6c0.5,0,0.9,0.1,1.1,0.2s0.5,0.4,0.7,0.8l4.6,8.1c0.5,0.8,1.2,1.2,2.3,1.2h4.7h1.2
		h3.9c0.5,0,1-0.1,1.3-0.4c0.4-0.3,0.6-0.6,0.8-1l1.6-4.8h10.5l1.6,4.8c0.2,0.4,0.4,0.7,0.8,1s0.8,0.4,1.4,0.4h5l-10.7-27.7H108.5z
		 M89.9,105.6c-0.2,0.5-0.5,1-0.9,1.4s-0.9,0.7-1.5,0.9c-0.6,0.2-1.4,0.3-2.2,0.3h-2.6V100h2.6c1.7,0,2.9,0.3,3.7,1
		c0.8,0.7,1.2,1.6,1.2,2.9C90.1,104.5,90.1,105,89.9,105.6z M108,112.3l2.6-7.6c0.2-0.5,0.4-1.1,0.6-1.7s0.4-1.4,0.6-2.2
		c0.2,0.8,0.4,1.5,0.6,2.1c0.2,0.7,0.4,1.2,0.6,1.7l2.6,7.6H108z"/>
	<path class="st7" d="M145,109.8c0,0.4,0,0.9,0,1.4c0,0.5,0.1,1,0.1,1.6L132,96.2c-0.2-0.2-0.3-0.4-0.5-0.5
		c-0.1-0.1-0.3-0.2-0.4-0.3s-0.3-0.1-0.5-0.1c-0.2,0-0.4,0-0.7,0h-3.4v27.7h5.7V108c0-0.4,0-0.8,0-1.3c0-0.5-0.1-0.9-0.1-1.4
		l13.1,16.5c0.3,0.4,0.7,0.7,1,0.8s0.8,0.2,1.2,0.2h3.4V95.2H145V109.8z"/>
	<polygon class="st4" points="62.9,22.8 87.7,60.2 97.2,74.6 104.4,60.6 119.4,31.3 111.2,18.4 95.1,46.9 63.3,0 37.4,43.2 45.9,56 
			"/>
	<polygon class="st4" points="153.7,85.3 125,40.1 110.1,69.1 101.9,85.3 121.1,85.3 	"/>
	<polygon class="st4" points="93.5,85.3 82.7,69 63.9,40.6 46.8,73.8 32.2,51.7 12.1,85.3 73.6,85.3 	"/>
	<path class="st2" d="M66.5,102.5c-0.7-0.8-1.5-1.3-2.4-1.8c-1-0.4-2.1-0.6-3.3-0.6c-1.2,0-2.4,0.2-3.3,0.6c-1,0.4-1.8,1-2.5,1.8
		c-0.7,0.8-1.2,1.7-1.5,2.8c-0.4,1.1-0.5,2.3-0.5,3.7c0,1.4,0.2,2.6,0.5,3.7c0.4,1.1,0.9,2,1.5,2.8c0.7,0.8,1.5,1.3,2.5,1.7
		c1,0.4,2.1,0.6,3.3,0.6c1.2,0,2.3-0.2,3.3-0.6c1-0.4,1.8-1,2.4-1.7c0.7-0.8,1.2-1.7,1.5-2.8s0.5-2.3,0.5-3.7c0-1.4-0.2-2.6-0.5-3.7
		C67.7,104.2,67.2,103.3,66.5,102.5z"/>
	<path class="st2" d="M112.4,103c-0.2-0.7-0.4-1.4-0.6-2.1c-0.2,0.8-0.4,1.5-0.6,2.2s-0.4,1.2-0.6,1.7l-2.6,7.6h7.6l-2.6-7.6
		C112.9,104.2,112.7,103.7,112.4,103z"/>
	<path class="st2" d="M85.3,100h-2.6v8.2h2.6c0.9,0,1.6-0.1,2.2-0.3c0.6-0.2,1.1-0.5,1.5-0.9s0.7-0.9,0.9-1.4
		c0.2-0.5,0.3-1.1,0.3-1.7c0-1.2-0.4-2.2-1.2-2.9C88.2,100.3,86.9,100,85.3,100z"/>
	<path class="st2" d="M153.7,85.3h-32.6h-19.2l-2.4,4.6l-1.3,2.5l-1.6-2.4l-3.1-4.7H73.6H12.1H0v47.5h164.8V85.3H153.7z M113.4,90
		c0.1-0.2,0.2-0.4,0.3-0.6c0.1-0.1,0.2-0.3,0.3-0.4c0.3-0.3,0.6-0.5,0.9-0.6s0.7-0.2,1.2-0.2s0.8,0.1,1.2,0.2
		c0.4,0.2,0.7,0.4,0.9,0.6c0.1,0.1,0.1,0.2,0.2,0.2v0c0.2,0.2,0.3,0.4,0.4,0.7c0.2,0.4,0.2,0.7,0.2,1.1c0,0.4-0.1,0.8-0.2,1.1
		c-0.2,0.3-0.4,0.6-0.6,0.9c-0.3,0.3-0.6,0.5-0.9,0.6c-0.4,0.1-0.7,0.2-1.2,0.2s-0.8-0.1-1.2-0.2s-0.7-0.3-0.9-0.6
		c-0.3-0.3-0.5-0.6-0.6-0.9c-0.2-0.3-0.2-0.7-0.2-1.1C113.2,90.8,113.3,90.4,113.4,90z M104.7,90c0.1-0.1,0.1-0.2,0.2-0.3h0
		c0.1-0.2,0.3-0.4,0.5-0.6c0.3-0.3,0.6-0.5,0.9-0.6c0.3-0.2,0.7-0.2,1.1-0.2c0.4,0,0.8,0.1,1.2,0.2s0.7,0.4,1,0.6
		c0.1,0.1,0.3,0.3,0.4,0.5c0.1,0.1,0.2,0.3,0.3,0.5c0.2,0.4,0.2,0.7,0.2,1.1c0,0.4-0.1,0.8-0.2,1.1c-0.2,0.3-0.4,0.6-0.7,0.9
		c-0.3,0.3-0.6,0.5-1,0.6s-0.8,0.2-1.2,0.2c-0.4,0-0.7-0.1-1.1-0.2c-0.3-0.1-0.7-0.3-0.9-0.6c-0.3-0.3-0.5-0.6-0.6-0.9
		c-0.2-0.3-0.2-0.7-0.2-1.1C104.4,90.8,104.5,90.4,104.7,90z M45.2,122.9h-5.7v-16c0-0.4,0-0.8,0-1.2c0-0.4,0.1-0.9,0.1-1.3
		l-7.4,14.3c-0.2,0.4-0.5,0.8-0.9,1c-0.4,0.2-0.8,0.3-1.3,0.3h-0.9c-0.5,0-0.9-0.1-1.3-0.3c-0.4-0.2-0.7-0.6-0.9-1l-7.4-14.3
		c0,0.5,0.1,0.9,0.1,1.3s0,0.8,0,1.2v16h-5.7V95.2H19c0.3,0,0.5,0,0.7,0c0.2,0,0.4,0.1,0.6,0.1c0.2,0.1,0.3,0.2,0.4,0.3
		c0.1,0.1,0.3,0.3,0.4,0.6l7.1,14.1c0.3,0.5,0.5,1,0.7,1.5c0.2,0.5,0.5,1.1,0.7,1.6c0.2-0.6,0.4-1.1,0.7-1.6c0.2-0.5,0.5-1,0.8-1.5
		l7.1-14c0.1-0.2,0.3-0.4,0.4-0.6c0.1-0.1,0.3-0.2,0.4-0.3c0.2-0.1,0.4-0.1,0.6-0.1c0.2,0,0.5,0,0.7,0h4.9V122.9z M74.1,114.6
		c-0.7,1.7-1.7,3.2-2.9,4.5s-2.8,2.3-4.5,3c-1.8,0.7-3.7,1.1-5.9,1.1c-2.2,0-4.1-0.4-5.9-1.1c-1.8-0.7-3.3-1.7-4.6-3
		s-2.2-2.8-2.9-4.5c-0.7-1.7-1-3.6-1-5.6c0-2,0.3-3.9,1-5.6c0.7-1.7,1.7-3.2,2.9-4.5s2.8-2.3,4.6-3c1.8-0.7,3.7-1.1,5.9-1.1
		c2.2,0,4.1,0.4,5.9,1.1c1.8,0.7,3.3,1.7,4.5,3s2.2,2.8,2.9,4.5c0.7,1.7,1,3.6,1,5.6C75.2,111,74.8,112.9,74.1,114.6z M120.8,122.9
		c-0.6,0-1-0.1-1.4-0.4s-0.6-0.6-0.8-1l-1.6-4.8h-10.5l-1.6,4.8c-0.1,0.4-0.4,0.7-0.8,1c-0.4,0.3-0.8,0.4-1.3,0.4h-3.9h-1.2h-4.7
		c-1.1,0-1.9-0.4-2.3-1.2l-4.6-8.1c-0.2-0.3-0.5-0.6-0.7-0.8s-0.6-0.2-1.1-0.2h-1.6v10.3h-6.4V95.2h9c2,0,3.7,0.2,5.1,0.6
		c1.4,0.4,2.6,1,3.5,1.7s1.5,1.6,2,2.6s0.6,2.1,0.6,3.3c0,0.9-0.1,1.8-0.4,2.6c-0.2,0.8-0.6,1.5-1.1,2.2c-0.5,0.7-1,1.3-1.7,1.8
		c-0.7,0.5-1.5,1-2.4,1.3c0.4,0.2,0.8,0.5,1.2,0.8c0.4,0.3,0.7,0.7,1,1.2l5.2,8.5l10.3-26.6h6.6l10.7,27.7H120.8z M150.7,122.9h-3.4
		c-0.5,0-0.9-0.1-1.2-0.2s-0.7-0.4-1-0.8L132,105.3c0.1,0.5,0.1,1,0.1,1.4c0,0.5,0,0.9,0,1.3v14.9h-5.7V95.2h3.4c0.3,0,0.5,0,0.7,0
		c0.2,0,0.4,0.1,0.5,0.1s0.3,0.2,0.4,0.3c0.1,0.1,0.3,0.3,0.5,0.5l13.2,16.7c-0.1-0.5-0.1-1-0.1-1.6c0-0.5,0-1,0-1.4V95.2h5.7V122.9
		z"/>
</g>
<g id="Layer_1">
</g>
</svg>
